<svg id="svg" version="1.1" width="400" height="400.72859744990893" viewBox="0 0 400 400.72859744990893" xmlns="http://www.w3.org/2000/svg" xmlns:xlink="http://www.w3.org/1999/xlink" ><g id="svgg"><path id="path0" d="M277.100 42.682 C 277.595 42.778,278.405 42.778,278.900 42.682 C 279.395 42.587,278.990 42.509,278.000 42.509 C 277.010 42.509,276.605 42.587,277.100 42.682 M218.800 281.173 C 218.800 281.378,219.152 281.658,219.582 281.794 C 220.013 281.931,220.825 282.618,221.388 283.321 C 221.951 284.025,222.596 284.825,222.822 285.100 C 223.047 285.375,223.399 285.600,223.603 285.600 C 223.808 285.600,222.935 284.520,221.663 283.200 C 219.396 280.847,218.800 280.425,218.800 281.173 M226.406 288.271 C 226.415 288.747,226.865 289.292,228.000 290.200 L 229.000 291.000 228.200 290.012 C 226.901 288.409,226.400 287.922,226.406 288.271 M234.822 297.100 C 234.834 297.265,235.419 297.846,236.122 298.392 C 237.104 299.154,237.261 299.201,236.800 298.594 C 235.553 296.950,234.767 296.357,234.822 297.100 M263.400 367.611 C 264.720 367.777,268.860 367.909,272.600 367.904 C 277.158 367.898,278.670 367.801,277.186 367.609 C 275.968 367.452,271.828 367.320,267.986 367.316 C 263.011 367.310,261.691 367.395,263.400 367.611 " stroke="none" fill="#000000" fill-rule="evenodd"></path><path id="path1" d="M211.992 284.610 C 211.219 285.541,211.771 285.717,212.598 284.802 C 212.997 284.361,213.138 284.000,212.911 284.000 C 212.684 284.000,212.270 284.274,211.992 284.610 M208.196 288.404 C 207.566 289.062,207.233 289.600,207.455 289.600 C 207.970 289.600,209.803 287.670,209.539 287.406 C 209.431 287.297,208.826 287.746,208.196 288.404 M204.542 291.900 C 203.448 292.945,199.875 296.320,196.601 299.400 C 182.778 312.407,166.800 328.144,166.800 328.753 C 166.800 329.541,167.870 329.241,171.476 327.443 C 173.414 326.477,176.170 325.377,177.600 324.999 C 179.030 324.621,181.550 323.720,183.200 322.996 C 184.850 322.273,187.218 321.381,188.463 321.015 C 191.496 320.122,193.979 318.037,193.080 317.137 C 192.447 316.504,192.366 315.882,192.328 311.333 C 192.312 309.355,192.476 308.685,193.154 307.957 C 193.902 307.154,194.087 306.650,193.966 305.745 C 193.947 305.604,194.084 305.379,194.270 305.245 C 194.455 305.110,195.127 304.190,195.763 303.200 C 196.398 302.210,197.477 300.789,198.159 300.041 C 198.842 299.294,200.210 297.793,201.200 296.705 C 202.190 295.618,203.855 293.836,204.900 292.745 C 206.519 291.055,207.198 290.000,206.665 290.000 C 206.591 290.000,205.636 290.855,204.542 291.900 M228.571 291.111 C 229.215 291.815,229.821 292.312,229.918 292.215 C 230.111 292.022,229.453 291.334,228.198 290.415 C 227.759 290.094,227.927 290.407,228.571 291.111 M245.000 307.600 C 245.859 308.480,246.652 309.200,246.762 309.200 C 246.872 309.200,246.259 308.480,245.400 307.600 C 244.541 306.720,243.748 306.000,243.638 306.000 C 243.528 306.000,244.141 306.720,245.000 307.600 M249.570 312.147 C 250.652 313.323,250.866 313.438,250.580 312.691 C 250.472 312.412,249.983 311.938,249.492 311.639 C 248.641 311.120,248.645 311.144,249.570 312.147 M261.400 324.000 C 262.259 324.880,263.052 325.600,263.162 325.600 C 263.272 325.600,262.659 324.880,261.800 324.000 C 260.941 323.120,260.148 322.400,260.038 322.400 C 259.928 322.400,260.541 323.120,261.400 324.000 M165.213 330.300 C 165.219 330.465,165.714 330.946,166.313 331.368 L 167.400 332.136 166.430 331.068 C 165.411 329.946,165.192 329.807,165.213 330.300 M168.909 334.127 C 169.839 335.077,170.678 335.793,170.774 335.720 C 171.003 335.543,167.929 332.400,167.528 332.400 C 167.358 332.400,167.979 333.177,168.909 334.127 M273.634 336.247 C 274.165 336.933,274.680 337.423,274.779 337.335 C 274.877 337.247,274.443 336.686,273.813 336.088 L 272.669 335.000 273.634 336.247 M172.000 336.987 C 172.000 337.279,174.795 340.000,175.095 340.000 C 175.242 340.000,174.659 339.280,173.800 338.400 C 172.260 336.823,172.000 336.619,172.000 336.987 M277.020 339.709 C 277.128 339.988,277.617 340.462,278.108 340.761 C 278.959 341.280,278.955 341.256,278.030 340.253 C 276.948 339.077,276.734 338.962,277.020 339.709 M176.800 341.829 C 176.800 342.253,178.036 343.297,178.267 343.067 C 178.392 342.941,178.217 342.560,177.876 342.219 C 177.241 341.584,176.800 341.424,176.800 341.829 M280.035 342.900 C 280.128 342.955,280.833 343.540,281.602 344.200 L 283.000 345.400 281.825 344.100 C 281.179 343.385,280.474 342.800,280.258 342.800 C 280.043 342.800,279.943 342.845,280.035 342.900 M286.000 348.800 C 286.507 349.240,287.013 349.600,287.123 349.600 C 287.234 349.600,286.998 349.240,286.600 348.800 C 286.202 348.360,285.696 348.000,285.477 348.000 C 285.257 348.000,285.493 348.360,286.000 348.800 M299.200 361.952 C 299.200 362.128,299.920 362.938,300.800 363.752 C 301.680 364.566,302.400 365.128,302.400 365.000 C 302.400 364.873,301.680 364.063,300.800 363.200 C 299.920 362.337,299.200 361.776,299.200 361.952 M283.200 367.639 C 284.877 368.009,300.251 368.118,299.891 367.757 C 299.752 367.619,295.625 367.466,290.719 367.418 C 285.814 367.369,282.430 367.469,283.200 367.639 " stroke="none" fill="#002b4e" fill-rule="evenodd"></path><path id="path2" d="M263.700 42.291 C 264.525 42.378,265.875 42.378,266.700 42.291 C 267.525 42.205,266.850 42.134,265.200 42.134 C 263.550 42.134,262.875 42.205,263.700 42.291 M214.505 191.087 C 215.114 191.179,216.014 191.177,216.505 191.082 C 216.997 190.987,216.500 190.911,215.400 190.914 C 214.300 190.917,213.897 190.995,214.505 191.087 M208.529 286.744 C 204.146 291.065,197.329 297.745,193.380 301.589 C 170.650 323.715,164.959 329.558,165.589 330.122 C 165.925 330.424,166.576 331.104,167.035 331.635 C 167.495 332.166,168.305 332.979,168.835 333.443 C 169.366 333.906,171.382 335.931,173.316 337.943 C 175.250 339.954,176.927 341.600,177.044 341.600 C 177.381 341.600,178.400 342.708,178.400 343.075 C 178.400 343.258,179.026 343.946,179.791 344.604 C 180.557 345.262,181.187 346.025,181.191 346.300 C 181.196 346.575,181.342 346.800,181.516 346.800 C 181.690 346.800,185.065 350.054,189.016 354.031 C 200.430 365.521,201.131 366.166,202.720 366.658 C 203.778 366.985,214.909 367.139,241.800 367.198 C 283.048 367.289,300.787 367.402,301.400 367.579 C 304.465 368.464,303.562 366.502,298.600 361.494 C 296.070 358.940,294.000 356.660,294.000 356.426 C 294.000 356.192,293.811 356.000,293.580 356.000 C 293.349 356.000,291.025 353.840,288.416 351.200 C 285.807 348.560,283.476 346.400,283.236 346.400 C 282.996 346.400,282.800 346.168,282.800 345.884 C 282.800 345.599,282.125 344.728,281.300 343.948 C 280.475 343.167,279.511 342.185,279.157 341.764 C 278.804 341.344,278.174 340.720,277.757 340.378 C 277.341 340.035,276.642 339.270,276.205 338.678 C 275.768 338.085,275.228 337.595,275.005 337.589 C 274.782 337.583,274.150 336.958,273.600 336.200 C 273.050 335.442,272.452 334.817,272.271 334.811 C 272.089 334.805,271.070 333.855,270.006 332.700 C 268.942 331.545,256.467 318.965,242.285 304.744 L 216.499 278.887 208.529 286.744 M212.598 284.802 C 212.198 285.244,211.785 285.518,211.679 285.412 C 211.410 285.143,212.408 284.000,212.911 284.000 C 213.138 284.000,212.997 284.361,212.598 284.802 M208.799 288.602 C 208.283 289.151,207.678 289.600,207.455 289.600 C 207.233 289.600,207.566 289.062,208.196 288.404 C 208.826 287.746,209.431 287.297,209.539 287.406 C 209.648 287.514,209.314 288.052,208.799 288.602 M206.800 290.381 C 206.800 290.590,205.945 291.654,204.900 292.745 C 203.855 293.836,202.190 295.618,201.200 296.705 C 200.210 297.793,198.842 299.294,198.159 300.041 C 197.477 300.789,196.398 302.210,195.763 303.200 C 195.127 304.190,194.455 305.110,194.270 305.245 C 194.084 305.379,193.947 305.604,193.966 305.745 C 194.087 306.650,193.902 307.154,193.154 307.957 C 192.476 308.685,192.312 309.355,192.328 311.333 C 192.366 315.882,192.447 316.504,193.080 317.137 C 193.979 318.037,191.496 320.122,188.463 321.015 C 187.218 321.381,184.850 322.273,183.200 322.996 C 181.550 323.720,179.030 324.621,177.600 324.999 C 176.170 325.377,173.414 326.477,171.476 327.443 C 167.870 329.241,166.800 329.541,166.800 328.753 C 166.800 328.144,182.778 312.407,196.601 299.400 C 199.875 296.320,203.448 292.945,204.542 291.900 C 206.654 289.882,206.800 289.784,206.800 290.381 " stroke="none" fill="#01579b" fill-rule="evenodd"></path><path id="path3" d="M270.800 42.223 C 272.230 42.534,276.361 42.622,275.904 42.332 C 275.627 42.156,274.230 42.030,272.800 42.053 C 271.370 42.075,270.470 42.152,270.800 42.223 M282.100 42.676 C 282.485 42.776,283.115 42.776,283.500 42.676 C 283.885 42.575,283.570 42.493,282.800 42.493 C 282.030 42.493,281.715 42.575,282.100 42.676 M209.700 190.687 C 210.305 190.778,211.295 190.778,211.900 190.687 C 212.505 190.595,212.010 190.520,210.800 190.520 C 209.590 190.520,209.095 190.595,209.700 190.687 M219.700 191.076 C 220.085 191.176,220.715 191.176,221.100 191.076 C 221.485 190.975,221.170 190.893,220.400 190.893 C 219.630 190.893,219.315 190.975,219.700 191.076 M278.600 367.600 C 279.701 368.073,280.092 368.073,279.800 367.600 C 279.664 367.380,279.158 367.213,278.676 367.228 C 277.831 367.255,277.829 367.269,278.600 367.600 " stroke="none" fill="#0000ff" fill-rule="evenodd"></path><path id="path4" d="" stroke="none" fill="#0033ff" fill-rule="evenodd"></path><path id="path5" d="M209.100 191.082 C 209.595 191.178,210.405 191.178,210.900 191.082 C 211.395 190.987,210.990 190.909,210.000 190.909 C 209.010 190.909,208.605 190.987,209.100 191.082 M209.769 285.059 C 206.672 288.216,204.250 290.800,204.387 290.800 C 204.724 290.800,215.600 279.808,215.600 279.468 C 215.600 279.092,215.954 278.753,209.769 285.059 M193.995 300.700 L 187.400 307.400 194.186 300.800 C 197.918 297.170,201.053 294.155,201.152 294.100 C 201.252 294.045,201.166 294.000,200.962 294.000 C 200.758 294.000,197.623 297.015,193.995 300.700 M178.378 315.900 L 177.000 317.400 178.500 316.022 C 179.896 314.738,180.184 314.400,179.878 314.400 C 179.812 314.400,179.137 315.075,178.378 315.900 M174.981 319.300 L 173.400 321.000 175.100 319.419 C 176.035 318.549,176.800 317.784,176.800 317.719 C 176.800 317.416,176.452 317.719,174.981 319.300 M168.992 325.300 L 165.000 329.400 169.100 325.408 C 171.355 323.212,173.200 321.367,173.200 321.308 C 173.200 321.018,172.701 321.492,168.992 325.300 " stroke="none" fill="#006dff" fill-rule="evenodd"></path><path id="path6" d="M209.300 42.287 C 209.905 42.378,210.895 42.378,211.500 42.287 C 212.105 42.195,211.610 42.120,210.400 42.120 C 209.190 42.120,208.695 42.195,209.300 42.287 M230.500 42.287 C 231.105 42.378,232.095 42.378,232.700 42.287 C 233.305 42.195,232.810 42.120,231.600 42.120 C 230.390 42.120,229.895 42.195,230.500 42.287 M235.300 42.291 C 236.125 42.378,237.475 42.378,238.300 42.291 C 239.125 42.205,238.450 42.134,236.800 42.134 C 235.150 42.134,234.475 42.205,235.300 42.291 M242.500 42.287 C 243.105 42.378,244.095 42.378,244.700 42.287 C 245.305 42.195,244.810 42.120,243.600 42.120 C 242.390 42.120,241.895 42.195,242.500 42.287 M256.600 42.432 C 258.774 42.625,260.351 42.603,260.580 42.376 C 260.817 42.141,259.466 42.021,256.980 42.056 L 253.000 42.112 256.600 42.432 M263.511 42.693 C 264.451 42.778,265.891 42.777,266.711 42.691 C 267.530 42.605,266.760 42.536,265.000 42.537 C 263.240 42.539,262.570 42.609,263.511 42.693 M273.300 42.676 C 273.685 42.776,274.315 42.776,274.700 42.676 C 275.085 42.575,274.770 42.493,274.000 42.493 C 273.230 42.493,272.915 42.575,273.300 42.676 M182.975 62.900 L 181.800 64.200 183.100 63.025 C 184.312 61.930,184.584 61.600,184.275 61.600 C 184.206 61.600,183.621 62.185,182.975 62.900 M256.114 93.080 C 255.627 93.586,255.374 94.000,255.552 94.000 C 255.942 94.000,257.398 92.445,257.164 92.277 C 257.074 92.213,256.601 92.574,256.114 93.080 M293.000 191.600 C 293.136 191.820,293.517 192.000,293.847 192.000 C 294.177 192.000,294.336 191.820,294.200 191.600 C 294.064 191.380,293.683 191.200,293.353 191.200 C 293.023 191.200,292.864 191.380,293.000 191.600 M297.500 191.482 C 297.995 191.578,298.805 191.578,299.300 191.482 C 299.795 191.387,299.390 191.309,298.400 191.309 C 297.410 191.309,297.005 191.387,297.500 191.482 M198.575 194.900 L 197.400 196.200 198.700 195.025 C 199.415 194.379,200.000 193.794,200.000 193.725 C 200.000 193.416,199.670 193.688,198.575 194.900 M199.484 294.660 C 190.731 303.373,183.621 310.551,183.684 310.611 C 183.748 310.671,191.090 303.540,200.000 294.764 C 208.910 285.988,216.020 278.810,215.800 278.813 C 215.580 278.816,208.238 285.948,199.484 294.660 M131.979 296.978 C 132.507 297.540,133.000 298.000,133.073 298.000 C 133.434 298.000,132.139 296.385,131.618 296.186 C 131.288 296.059,131.451 296.416,131.979 296.978 M144.637 309.720 C 144.746 309.984,145.311 310.549,145.893 310.976 L 146.952 311.752 146.176 310.693 C 145.355 309.573,144.305 308.909,144.637 309.720 M181.499 312.346 C 180.673 313.146,179.998 313.957,179.999 314.148 C 179.999 314.340,180.735 313.739,181.633 312.814 C 183.656 310.730,183.550 310.359,181.499 312.346 M148.201 313.198 C 148.860 313.967,149.445 314.672,149.500 314.765 C 149.555 314.857,149.687 314.846,149.794 314.739 C 149.901 314.633,149.316 313.928,148.495 313.173 L 147.002 311.800 148.201 313.198 M171.967 321.814 C 167.880 325.888,164.678 329.172,164.853 329.111 C 165.408 328.917,179.946 314.397,179.578 314.403 C 179.480 314.405,176.055 317.739,171.967 321.814 " stroke="none" fill="#0099ff" fill-rule="evenodd"></path><path id="path7" d="M203.200 43.090 C 202.430 43.656,201.260 44.805,200.600 45.643 C 199.940 46.481,199.130 47.272,198.800 47.400 C 198.470 47.528,197.660 48.325,197.000 49.170 C 196.340 50.015,195.306 51.043,194.701 51.453 C 194.097 51.864,193.602 52.313,193.601 52.452 C 193.601 52.590,192.880 53.445,192.000 54.352 C 191.120 55.259,190.402 55.956,190.403 55.900 C 190.405 55.845,184.908 61.245,178.187 67.900 C 171.466 74.555,165.794 80.000,165.583 80.000 C 165.373 80.000,165.200 80.183,165.200 80.407 C 165.200 80.907,162.472 83.600,161.966 83.600 C 161.765 83.600,161.600 83.799,161.600 84.043 C 161.600 84.514,158.006 88.067,156.500 89.084 C 156.005 89.418,155.600 89.941,155.600 90.246 C 155.600 90.551,155.459 90.800,155.286 90.800 C 155.113 90.800,153.718 92.074,152.186 93.632 C 149.106 96.763,148.839 97.027,136.626 109.000 C 131.913 113.620,127.647 117.715,127.147 118.100 C 126.647 118.485,126.372 118.800,126.537 118.800 C 126.898 118.800,125.437 120.268,123.846 121.504 C 123.211 121.997,122.783 122.400,122.895 122.400 C 123.007 122.400,121.546 123.980,119.649 125.912 C 117.752 127.844,116.110 129.407,116.000 129.386 C 115.890 129.365,115.401 129.765,114.914 130.274 C 114.427 130.783,114.090 131.200,114.165 131.200 C 114.240 131.200,111.974 133.495,109.129 136.300 C 106.284 139.105,97.531 147.755,89.678 155.521 C 81.825 163.288,75.261 169.768,75.092 169.921 C 74.922 170.075,73.079 171.955,70.997 174.100 C 68.914 176.245,67.146 178.000,67.067 178.000 C 66.951 178.000,64.359 180.558,62.200 182.802 C 61.980 183.031,61.350 183.651,60.800 184.180 C 60.250 184.709,59.620 185.342,59.400 185.585 C 58.094 187.034,46.801 197.933,45.822 198.689 C 45.175 199.190,44.743 199.600,44.863 199.600 C 44.984 199.600,44.056 200.636,42.802 201.902 C 40.360 204.367,40.219 205.343,42.106 206.733 C 42.761 207.215,43.811 208.264,45.057 209.681 C 45.308 209.966,46.118 210.770,46.857 211.466 C 47.596 212.162,48.399 212.972,48.643 213.266 C 48.887 213.560,50.057 214.737,51.243 215.883 C 52.429 217.028,54.243 218.828,55.273 219.883 C 56.304 220.937,57.744 222.352,58.473 223.028 C 59.203 223.703,60.193 224.693,60.672 225.228 C 61.152 225.762,61.782 226.398,62.072 226.640 C 62.363 226.882,63.161 227.692,63.847 228.440 C 64.533 229.188,66.820 231.465,68.929 233.500 C 71.038 235.535,72.698 237.200,72.616 237.200 C 72.535 237.200,73.038 237.802,73.734 238.537 C 74.430 239.272,75.062 239.825,75.138 239.766 C 75.213 239.707,75.843 240.320,76.538 241.129 C 77.232 241.938,78.122 242.840,78.515 243.133 C 79.248 243.680,80.331 244.747,81.872 246.441 C 82.352 246.969,82.982 247.598,83.272 247.839 C 83.563 248.081,85.284 249.829,87.099 251.724 C 91.412 256.230,91.673 256.362,93.200 254.800 C 93.860 254.125,94.400 253.399,94.400 253.186 C 94.400 252.974,94.593 252.800,94.829 252.800 C 95.382 252.800,96.400 251.782,96.400 251.229 C 96.400 250.993,96.535 250.800,96.700 250.800 C 97.215 250.799,100.000 248.154,100.000 247.665 C 100.000 247.409,100.187 247.200,100.416 247.200 C 100.644 247.200,104.233 243.825,108.390 239.700 C 112.547 235.575,117.676 230.535,119.786 228.500 C 121.897 226.465,123.504 224.800,123.358 224.800 C 123.212 224.800,123.521 224.458,124.046 224.040 C 124.571 223.622,134.215 214.101,145.477 202.884 C 156.740 191.666,166.055 182.588,166.177 182.711 C 166.300 182.833,166.400 182.724,166.400 182.469 C 166.400 181.906,171.160 177.200,171.729 177.200 C 171.951 177.200,172.040 177.107,171.926 176.993 C 171.812 176.879,173.267 175.261,175.160 173.397 C 179.193 169.424,192.347 156.551,194.861 154.116 C 195.817 153.190,196.790 152.200,197.023 151.916 C 197.255 151.632,197.975 150.946,198.623 150.392 C 199.270 149.837,200.385 148.706,201.100 147.878 C 201.815 147.050,202.400 146.474,202.400 146.597 C 202.400 146.721,203.005 146.233,203.744 145.511 C 204.483 144.790,205.012 144.065,204.920 143.900 C 204.828 143.735,204.903 143.600,205.087 143.600 C 205.270 143.600,216.126 132.976,229.210 119.991 C 242.295 107.006,253.180 96.211,253.400 96.002 C 253.620 95.792,256.500 92.917,259.800 89.611 C 271.650 77.743,284.525 65.200,284.860 65.200 C 285.047 65.200,285.200 65.022,285.200 64.804 C 285.200 64.586,286.034 63.641,287.054 62.704 C 288.074 61.767,289.289 60.565,289.754 60.034 C 291.220 58.361,294.186 55.605,294.524 55.602 C 294.702 55.601,294.736 55.420,294.600 55.200 C 294.464 54.980,294.517 54.800,294.717 54.800 C 295.286 54.800,305.600 44.340,305.600 43.762 C 305.600 42.828,305.121 42.813,275.233 42.792 C 253.449 42.778,245.643 42.653,245.847 42.324 C 245.999 42.078,245.955 41.981,245.749 42.108 C 245.228 42.430,241.539 42.451,221.800 42.242 L 204.600 42.060 203.200 43.090 M201.733 192.119 C 200.398 193.475,193.858 199.981,193.345 200.462 C 191.514 202.178,190.928 202.794,190.412 203.545 C 190.088 204.015,189.670 204.400,189.482 204.400 C 189.294 204.400,187.727 205.840,186.000 207.600 C 184.273 209.360,182.666 210.800,182.430 210.800 C 182.193 210.800,182.000 211.030,182.000 211.312 C 182.000 211.593,181.612 212.088,181.138 212.412 C 180.663 212.735,179.988 213.332,179.638 213.738 C 179.287 214.144,177.380 216.082,175.400 218.044 C 164.922 228.430,121.743 271.257,121.400 271.604 C 121.180 271.826,119.605 273.417,117.900 275.139 C 113.995 279.083,113.902 278.591,119.603 284.200 C 123.649 288.181,125.700 290.223,127.092 291.657 C 129.725 294.369,129.744 294.388,130.761 295.320 C 131.289 295.804,133.269 297.792,135.161 299.737 C 137.052 301.682,139.032 303.662,139.560 304.137 C 140.087 304.612,141.077 305.615,141.760 306.367 C 142.442 307.119,143.434 308.109,143.965 308.567 C 144.495 309.025,145.305 309.834,145.765 310.365 C 146.224 310.895,147.034 311.705,147.565 312.165 C 148.095 312.624,148.905 313.435,149.365 313.967 C 149.824 314.499,152.765 317.524,155.900 320.691 C 159.035 323.857,161.600 326.617,161.600 326.824 C 161.600 327.031,161.746 327.200,161.925 327.200 C 162.103 327.200,162.649 327.572,163.137 328.027 C 164.517 329.313,163.787 329.966,190.236 303.800 C 204.024 290.160,215.737 278.848,216.266 278.662 C 216.794 278.476,219.188 276.361,221.584 273.962 C 223.981 271.563,226.165 269.600,226.438 269.600 C 226.710 269.600,226.832 269.499,226.708 269.375 C 226.440 269.106,229.499 266.000,230.032 266.000 C 230.234 266.000,230.400 265.816,230.400 265.591 C 230.400 265.254,235.156 260.466,241.489 254.429 C 242.197 253.753,242.679 253.200,242.558 253.200 C 242.437 253.200,242.928 252.705,243.648 252.100 C 244.368 251.495,252.076 243.929,260.778 235.287 C 269.480 226.645,276.960 219.226,277.400 218.801 C 277.840 218.375,278.602 217.616,279.094 217.114 C 279.585 216.611,280.395 215.822,280.894 215.359 C 281.392 214.897,283.364 212.917,285.275 210.959 C 287.186 209.002,289.796 206.383,291.075 205.139 C 292.354 203.896,294.146 202.096,295.057 201.139 C 295.969 200.183,298.084 198.102,299.757 196.515 C 303.741 192.737,303.697 192.200,299.379 191.908 C 298.047 191.818,296.763 191.624,296.525 191.477 C 296.287 191.330,295.544 191.401,294.874 191.634 C 294.038 191.926,293.417 191.930,292.891 191.649 C 292.381 191.376,277.162 191.238,247.362 191.238 L 202.600 191.237 201.733 192.119 " stroke="none" fill="#54c5f8" fill-rule="evenodd"></path><path id="path8" d="M239.390 42.416 C 239.221 42.689,239.523 42.738,240.266 42.560 C 241.799 42.192,241.944 42.000,240.690 42.000 C 240.117 42.000,239.532 42.187,239.390 42.416 M245.850 42.320 C 245.741 42.495,248.566 42.645,252.126 42.652 C 257.788 42.663,258.148 42.628,255.000 42.375 C 249.941 41.967,246.082 41.944,245.850 42.320 M299.200 191.600 L 298.200 191.920 299.300 191.960 C 299.905 191.982,300.400 191.820,300.400 191.600 C 300.400 191.380,300.355 191.218,300.300 191.240 C 300.245 191.262,299.750 191.424,299.200 191.600 " stroke="none" fill="#00d1ff" fill-rule="evenodd"></path><path id="path9" d="M268.500 42.276 C 268.885 42.376,269.515 42.376,269.900 42.276 C 270.285 42.175,269.970 42.093,269.200 42.093 C 268.430 42.093,268.115 42.175,268.500 42.276 M81.802 162.798 C 81.403 163.239,81.207 163.600,81.367 163.600 C 81.788 163.600,82.928 162.395,82.712 162.179 C 82.611 162.078,82.202 162.356,81.802 162.798 M205.052 190.812 C 205.325 191.085,205.791 191.094,206.432 190.838 C 207.342 190.474,207.317 190.449,206.020 190.425 C 205.073 190.408,204.769 190.529,205.052 190.812 " stroke="none" fill="#00ffff" fill-rule="evenodd"></path></g></svg>